<?xml version="1.0" encoding="UTF-8"?>
<svg width="512" height="512" viewBox="0 0 512 512" fill="none" xmlns="http://www.w3.org/2000/svg">
  <title>Dataset Aggregator Icon</title>
  <rect width="512" height="512" fill="none"/>

  <rect x="120" y="150" width="250" height="180" rx="24" fill="#EEF2F7" stroke="#1F2937" stroke-width="14" opacity="0.85"/>
  <rect x="95" y="180" width="250" height="180" rx="24" fill="#F6F9FC" stroke="#1F2937" stroke-width="14" opacity="0.92"/>
  <rect x="70" y="210" width="250" height="180" rx="24" fill="#FFFFFF" stroke="#1F2937" stroke-width="14"/>

  <line x1="110" y1="260" x2="270" y2="260" stroke="#1F2937" stroke-width="12" stroke-linecap="round" opacity="0.35"/>
  <line x1="110" y1="300" x2="240" y2="300" stroke="#1F2937" stroke-width="12" stroke-linecap="round" opacity="0.28"/>
  <line x1="110" y1="340" x2="255" y2="340" stroke="#1F2937" stroke-width="12" stroke-linecap="round" opacity="0.22"/>

  <circle cx="350" cy="250" r="78" fill="#FFFFFF" stroke="#2563EB" stroke-width="16"/>
  <path d="M308 222c14-22 35-36 60-39" stroke="#2563EB" stroke-width="10" stroke-linecap="round" opacity="0.35"/>
  <line x1="405" y1="305" x2="458" y2="358" stroke="#2563EB" stroke-width="18" stroke-linecap="round"/>
  <circle cx="458" cy="358" r="10" fill="#2563EB"/>

  <path d="M360 155l6 18m20-4l-16 10m21 16l-18-6" stroke="#10B981" stroke-width="10" stroke-linecap="round" opacity="0.9"/>
</svg>
